#!OML:ASF F:\VICON\USERDATA\INSTALL\rory3\rory3.ASF
:FULLY-SPECIFIED
:DEGREES
64
root -0.19629423658367606 17.579313713737594 30.231634459269962 0.6062409921656686 6.566785806625292 -0.8545398575373069
lfemur -24.641674211651335 -0.5343819653511453 -24.36050552835399
ltibia 38.5131791983094
lfoot -9.704607027830432 -12.342298505604484
ltoes 3.138262302891941
rfemur -1.788008433415909 -0.9494985363539792 25.817142593311324
rtibia 97.51987014416818
rfoot 20.15366434324819 -9.676255217334441
rtoes 9.341589228882613
lowerback 15.478316187203625 2.096919005378467 1.333012707623201
upperback -0.18919079168144484 2.99802320834343 -0.463842183658854
thorax -8.587062209084307 1.380892031386575 -1.5934327860823059
lowerneck -19.044563346441926 -6.2406203270387515 -2.338271407767441
upperneck 15.379280894714025 -8.757490909199007 4.758281554333971
head 8.298151548626887 -3.849714607987112 0.923492671483451
lclavicle 1.1204471135004658e-16 2.078606231911854e-17
lhumerus -64.58893304486477 -2.881403130661104 97.00281008587918
lradius 118.87410795754872
lwrist 38.44734511248517
lhand -23.000422146960773 4.676694969279083
lfingers 7.12502000000006
lthumb 3.442357814273187 34.57723437090735
rclavicle 1.1204471135004658e-16 2.078606231911854e-17
rhumerus -39.76251116237763 15.521374613178264 -100.59145992677608
rradius 108.8148629076943
rwrist -17.384069866389115
rhand -20.828078077518967 -1.575528668689735
rfingers 7.12502000000006
rthumb 5.537953225577994 13.250877133908151
65
root -0.17652704371308964 17.34030490921547 31.146295279273883 0.6048202700570916 6.484345247153305 0.4794629898614944
lfemur -22.395401002061256 -1.0444867584926245 -25.775899436772725
ltibia 43.27855729025357
lfoot -15.63778213460461 -8.222808001082626
ltoes 4.646272957906199
rfemur -7.403359512855282 -2.8187874813603355 22.75976057408769
rtibia 106.25087891446819
rfoot 19.26284333613973 -8.786892408419789
rtoes 11.249605332321186
lowerback 16.318805397232815 2.04991151661829 -0.10389592200959008
upperback 0.013083478686429617 2.658780073978944 -0.8584816595741993
thorax -8.8298112786214 1.2669400061557266 -1.0590980621342134
lowerneck -19.37230833410808 -6.189158019673809 -2.27157721516728
upperneck 15.294279959023015 -8.718480322635166 4.916398773646005
head 8.33368887753133 -3.8094984790900703 0.9636922474152202
lclavicle 3.704542679859359e-16 2.2087332947559206e-16
lhumerus -59.99581524785739 -4.880798454659694 97.72589648297786
lradius 118.06371526710771
lwrist 39.58911469474315
lhand -23.113486123843796 5.5030574313890135
lfingers 7.1250200000000605
lthumb 3.3332116413106174 35.40534149988365
rclavicle 3.704542679859359e-16 2.2087332947559206e-16
rhumerus -41.173432463045174 14.765655219510055 -101.25732035377105
rradius 107.53595596986284
rwrist -17.51414659287303
rhand -20.953479620723307 -1.9722845644015194
rfingers 7.1250200000000605
rthumb 5.416765672827157 13.185096965394662
66
root -0.16792629408572118 17.14519833212438 31.980501378400156 0.8200006344535139 6.268299097115971 1.6556461086809082
lfemur -19.959549594480904 -1.678005408136739 -27.13651925179634
ltibia 46.848659934400764
lfoot -20.97366688071836 -3.497157085063571
ltoes 4.1037359415605215
rfemur -13.662662159865423 -4.500541578505569 20.04188054148478
rtibia 113.70906337150737
rfoot 17.942410239776418 -7.650925873301379
rtoes 12.866576683598735
lowerback 16.990194032732152 1.9746614026999998 -1.335818827880004
upperback 0.13504391957617234 2.30808039766412 -1.2092130250418716
thorax -9.066848230240844 1.1414091358737952 -0.6001369356351919
lowerneck -19.69735314422788 -6.091974723111407 -2.1967237091366423
upperneck 15.259158730781147 -8.608552335153522 4.991628942356655
head 8.37779284101972 -3.7409133439760454 0.9830048854232746
lclavicle 5.358090968415963e-16 3.489080460782097e-16
lhumerus -55.02559287447193 -6.981082740289492 98.20794812952765
lradius 116.60563177525624
lwrist 40.39186677213327
lhand -23.18944227854562 6.12374886937194
lfingers 7.1250200000000605
lthumb 3.259881509623005 36.02714064197619
rclavicle 5.358090968415963e-16 3.489080460782097e-16
rhumerus -42.68397965979754 13.686149352500223 -101.6784207352942
rradius 105.98655533992155
rwrist -17.807214076524335
rhand -21.05178978375398 -2.3775354814356895
rfingers 7.1250200000000605
rthumb 5.321935387617593 12.970590556484614
67
root -0.17251375854289824 17.015521077752993 32.70558666243462 1.133539089060942 5.947292394321032 2.4752102408437655
lfemur -17.206148173152428 -2.3248991630227867 -28.24886293404935
ltibia 48.71033288120862
lfoot -24.905730592928144 0.7234375102281021
ltoes 1.946249644767641
rfemur -20.334243112182815 -5.9869467103293985 18.000813960964372
rtibia 119.13078331947946
rfoot 16.106115537359592 -6.577906404497209
rtoes 13.671819193464874
lowerback 17.422166018180874 1.79594834801056 -2.2392500489739167
upperback 0.15531889158117085 1.884144211274645 -1.4261632728827045
thorax -9.292925809060229 0.9716166360145725 -0.19958374327330797
lowerneck -19.939939877738247 -5.916417814878127 -2.1305906514784176
upperneck 15.298998357424503 -8.376950612722911 4.94632105248095
head 8.42161851611476 -3.623928199373122 0.9790138020429299
lclavicle 5.345078704759088e-16 3.479004937286279e-16
lhumerus -50.12349738978584 -8.906872666736497 98.34993701843717
lradius 114.64656157139169
lwrist 40.684623061287624
lhand -23.234512162512182 6.405000055223094
lfingers 7.1250200000000605
lthumb 3.2163663656339194 36.30971741704913
rclavicle 5.345078704759088e-16 3.479004937286279e-16
rhumerus -44.39887065707148 12.374444347612563 -101.8290782517381
rradius 104.2363829618929
rwrist -18.314286061144994
rhand -21.09198027557013 -2.6437141753574913
rfingers 7.1250200000000605
rthumb 5.283422660614702 12.432940118594274
